# Blender v2.77 (sub 0) OBJ File: 'bullet.blend'
# www.blender.org
mtllib bullet.mtl
o Cube
v 0.186334 -0.279348 -0.279348
v 0.186333 -0.279348 0.279348
v -0.186333 -0.279348 0.279348
v -0.186333 -0.279348 -0.279348
v 0.186333 0.279348 -0.279347
v 0.186333 0.279348 0.279348
v -0.186334 0.279348 0.279348
v -0.186333 0.279348 -0.279348
v 0.214111 0.000000 -0.319713
v 0.214111 0.000000 0.319713
v -0.214111 0.000000 0.319713
v -0.214111 0.000000 -0.319713
v 0.000000 -0.319713 -0.319713
v -0.000000 -0.319713 0.319713
v 0.000000 0.319713 -0.319713
v -0.000000 0.319713 0.319713
v 0.000000 0.000000 -0.418045
v -0.000000 0.000000 0.418045
v 0.214111 -0.319713 0.000000
v -0.214111 -0.319713 -0.000000
v 0.214111 0.319713 0.000000
v -0.214111 0.319713 -0.000000
v -0.281453 0.000000 -0.000000
v 0.281453 0.000000 0.000000
v -0.000000 0.418045 0.000000
v 0.000000 -0.418045 -0.000000
vt 0.5000 0.5000
vt 0.4068 0.3603
vt 0.3929 0.5000
vt 0.5000 0.5000
vt 0.4068 0.3603
vt 0.5000 0.3401
vt 0.5000 0.5000
vt 0.3603 0.6397
vt 0.3401 0.5000
vt 0.5000 0.5000
vt 0.4068 0.6397
vt 0.3929 0.5000
vt 0.5000 0.5000
vt 0.6397 0.6397
vt 0.6599 0.5000
vt 0.5000 0.5000
vt 0.4068 0.3603
vt 0.3929 0.5000
vt 0.4068 0.6397
vt 0.5000 0.6599
vt 0.6397 0.3603
vt 0.5000 0.3401
vt 0.5000 0.3401
vt 0.3603 0.3603
vt 0.5000 0.3401
vt 0.5932 0.3603
vt 0.5932 0.6397
vt 0.5932 0.3603
vt 0.6071 0.5000
vt 0.5932 0.6397
vt 0.6071 0.5000
vt 0.5932 0.3603
vt 0.6071 0.5000
vt 0.6071 0.5000
vt 0.5932 0.6397
vt 0.5000 0.6599
vt 0.6397 0.3603
vt 0.3603 0.3603
vt 0.3603 0.6397
vt 0.3401 0.5000
vt 0.6397 0.6397
vt 0.6599 0.5000
vt 0.4068 0.6397
vt 0.3929 0.5000
vt 0.5000 0.6599
vt 0.5000 0.6599
vt 0.5000 0.6599
vt 0.5000 0.3401
vn -0.4113 -0.8955 0.1703
vn -0.2613 0.9226 0.2838
vn 0.9707 0.1261 0.2045
vn -0.4113 0.1703 0.8955
vn -0.9707 0.1261 -0.2045
vn -0.4113 -0.1703 -0.8955
vn -0.2613 0.2838 -0.9226
vn -0.9707 -0.2045 -0.1261
vn -0.2613 -0.2838 0.9226
vn 0.9707 -0.2045 0.1261
vn 0.2613 -0.2838 0.9226
vn 0.2613 0.2838 -0.9226
vn 0.4113 -0.1703 -0.8955
vn 0.4113 0.1703 0.8955
vn 0.4113 0.8955 0.1703
vn 0.4113 -0.8955 0.1703
vn 0.2613 -0.9226 -0.2838
vn 0.4113 0.8955 -0.1703
vn 0.9707 -0.2045 -0.1261
vn -0.9707 -0.2045 0.1261
vn -0.9707 0.1261 0.2045
vn 0.9707 0.1261 -0.2045
vn -0.2613 0.9226 -0.2838
vn -0.2613 -0.9226 -0.2838
vn -0.2613 -0.9226 0.2838
vn -0.4113 0.8955 0.1703
vn 0.9707 0.2045 0.1261
vn -0.2613 0.2838 0.9226
vn -0.9707 0.2045 -0.1261
vn -0.2613 -0.2838 -0.9226
vn -0.4113 0.1703 -0.8955
vn -0.9707 -0.1261 -0.2045
vn -0.4113 -0.1703 0.8955
vn 0.9707 -0.1261 0.2045
vn 0.4113 -0.1703 0.8955
vn 0.4113 0.1703 -0.8955
vn 0.2613 -0.2838 -0.9226
vn 0.2613 0.2838 0.9226
vn 0.2613 0.9226 0.2838
vn 0.2613 -0.9226 0.2838
vn 0.4113 -0.8955 -0.1703
vn 0.2613 0.9226 -0.2838
vn 0.9707 -0.1261 -0.2045
vn -0.9707 -0.1261 0.2045
vn -0.9707 0.2045 0.1261
vn 0.9707 0.2045 -0.1261
vn -0.4113 0.8955 -0.1703
vn -0.4113 -0.8955 -0.1703
usemtl Material
s off
f 26/1/1 3/2/1 20/3/1
f 25/4/2 7/5/2 16/6/2
f 24/7/3 6/8/3 10/9/3
f 18/10/4 7/11/4 11/12/4
f 23/13/5 8/14/5 12/15/5
f 17/16/6 4/17/6 12/18/6
f 17/16/7 8/19/7 15/20/7
f 23/13/8 4/21/8 20/22/8
f 18/10/9 3/2/9 14/23/9
f 24/7/10 2/24/10 19/25/10
f 2/26/11 18/10/11 14/23/11
f 5/27/12 17/16/12 15/20/12
f 1/28/13 17/16/13 9/29/13
f 6/30/14 18/10/14 10/31/14
f 25/4/15 6/32/15 21/33/15
f 2/26/16 26/1/16 19/34/16
f 1/35/17 26/1/17 13/36/17
f 5/27/18 25/4/18 21/33/18
f 1/37/19 24/7/19 19/25/19
f 3/38/20 23/13/20 20/22/20
f 7/39/21 23/13/21 11/40/21
f 5/41/22 24/7/22 9/42/22
f 8/19/23 25/4/23 15/20/23
f 26/1/24 4/43/24 13/36/24
f 26/1/25 14/23/25 3/2/25
f 25/4/26 22/44/26 7/5/26
f 24/7/27 21/45/27 6/8/27
f 18/10/28 16/46/28 7/11/28
f 23/13/29 22/47/29 8/14/29
f 17/16/30 13/48/30 4/17/30
f 17/16/31 12/18/31 8/19/31
f 23/13/32 12/15/32 4/21/32
f 18/10/33 11/12/33 3/2/33
f 24/7/34 10/9/34 2/24/34
f 2/26/35 10/31/35 18/10/35
f 5/27/36 9/29/36 17/16/36
f 1/28/37 13/48/37 17/16/37
f 6/30/38 16/46/38 18/10/38
f 25/4/39 16/6/39 6/32/39
f 2/26/40 14/23/40 26/1/40
f 1/35/41 19/34/41 26/1/41
f 5/27/42 15/20/42 25/4/42
f 1/37/43 9/42/43 24/7/43
f 3/38/44 11/40/44 23/13/44
f 7/39/45 22/47/45 23/13/45
f 5/41/46 21/45/46 24/7/46
f 8/19/47 22/44/47 25/4/47
f 26/1/48 20/3/48 4/43/48
